<svg xmlns="http://www.w3.org/2000/svg" width="700" height="450"><path d="M288,312L414,313L428,158Z" fill="#99d5e9" stroke="#99d5e9" stroke-width="1.51"/><path d="M428,158L262,123L288,312Z" fill="#95dde8" stroke="#95dde8" stroke-width="1.51"/><path d="M428,158L427,-29L262,123Z" fill="#b8d7ce" stroke="#b8d7ce" stroke-width="1.51"/><path d="M601,298L579,119L428,158Z" fill="#b9c7d6" stroke="#b9c7d6" stroke-width="1.51"/><path d="M414,313L601,298L428,158Z" fill="#aec9de" stroke="#aec9de" stroke-width="1.51"/><path d="M414,313L443,472L601,298Z" fill="#cbb5cc" stroke="#cbb5cc" stroke-width="1.51"/><path d="M288,312L443,472L414,313Z" fill="#bcc1d7" stroke="#bcc1d7" stroke-width="1.51"/><path d="M579,119L427,-29L428,158Z" fill="#cacac2" stroke="#cacac2" stroke-width="1.51"/><path d="M262,123L93,144L288,312Z" fill="#aedbd6" stroke="#aedbd6" stroke-width="1.51"/><path d="M288,312L266,491L443,472Z" fill="#c8b8cd" stroke="#c8b8cd" stroke-width="1.51"/><path d="M116,-24L93,144L262,123Z" fill="#d2d5b1" stroke="#d2d5b1" stroke-width="1.51"/><path d="M80,454L266,491L288,312Z" fill="#d8b7bb" stroke="#d8b7bb" stroke-width="1.51"/><path d="M93,144L77,319L288,312Z" fill="#bad4ce" stroke="#bad4ce" stroke-width="1.51"/><path d="M427,-29L243,-44L262,123Z" fill="#cbd7ba" stroke="#cbd7ba" stroke-width="1.51"/><path d="M243,-44L116,-24L262,123Z" fill="#d8d5a9" stroke="#d8d5a9" stroke-width="1.51"/><path d="M443,472L584,488L601,298Z" fill="#dea1bc" stroke="#dea1bc" stroke-width="1.51"/><path d="M419,636L584,488L443,472Z" fill="#dca3bd" stroke="#dca3bd" stroke-width="1.51"/><path d="M77,319L80,454L288,312Z" fill="#d3c0bb" stroke="#d3c0bb" stroke-width="1.51"/><path d="M427,-29L248,-175L243,-44Z" fill="#cfd6b5" stroke="#cfd6b5" stroke-width="1.51"/><path d="M579,119L598,-38L427,-29Z" fill="#dfc1ac" stroke="#dfc1ac" stroke-width="1.51"/><path d="M756,149L598,-38L579,119Z" fill="#e2b6ae" stroke="#e2b6ae" stroke-width="1.51"/><path d="M601,298L756,149L579,119Z" fill="#cbbac9" stroke="#cbbac9" stroke-width="1.51"/><path d="M753,332L756,149L601,298Z" fill="#d2adc6" stroke="#d2adc6" stroke-width="1.51"/><path d="M266,491L419,636L443,472Z" fill="#cfb1c9" stroke="#cfb1c9" stroke-width="1.51"/><path d="M283,652L419,636L266,491Z" fill="#cfb3c7" stroke="#cfb3c7" stroke-width="1.51"/><path d="M584,488L753,332L601,298Z" fill="#e19db8" stroke="#e19db8" stroke-width="1.51"/><path d="M243,-44L248,-175L116,-24Z" fill="#ddd4a4" stroke="#ddd4a4" stroke-width="1.51"/><path d="M413,-201L248,-175L427,-29Z" fill="#cbd6ba" stroke="#cbd6ba" stroke-width="1.51"/><path d="M82,623L283,652L266,491Z" fill="#ddb0b6" stroke="#ddb0b6" stroke-width="1.51"/><path d="M588,-191L413,-201L427,-29Z" fill="#dbc8ae" stroke="#dbc8ae" stroke-width="1.51"/><path d="M80,454L82,623L266,491Z" fill="#e6afac" stroke="#e6afac" stroke-width="1.51"/><path d="M77,319L-74,324L80,454Z" fill="#e3bda8" stroke="#e3bda8" stroke-width="1.51"/><path d="M-80,136L-74,324L77,319Z" fill="#d1d1b6" stroke="#d1d1b6" stroke-width="1.51"/><path d="M-80,136L77,319L93,144Z" fill="#cbd7ba" stroke="#cbd7ba" stroke-width="1.51"/><path d="M-85,-21L-80,136L93,144Z" fill="#e5d399" stroke="#e5d399" stroke-width="1.51"/><path d="M-85,-21L93,144L116,-24Z" fill="#e9d293" stroke="#e9d293" stroke-width="1.51"/><path d="M584,488L765,457L753,332Z" fill="#f089aa" stroke="#f089aa" stroke-width="1.51"/><path d="M753,332L952,295L756,149Z" fill="#d2adc6" stroke="#d2adc6" stroke-width="1.51"/><path d="M751,632L765,457L584,488Z" fill="#f383a6" stroke="#f383a6" stroke-width="1.51"/><path d="M-66,494L82,623L80,454Z" fill="#f1ac9b" stroke="#f1ac9b" stroke-width="1.51"/><path d="M598,-38L588,-191L427,-29Z" fill="#e3c0a7" stroke="#e3c0a7" stroke-width="1.51"/><path d="M750,-197L588,-191L598,-38Z" fill="#efb29c" stroke="#efb29c" stroke-width="1.51"/><path d="M283,652L588,659L419,636Z" fill="#d6aac3" stroke="#d6aac3" stroke-width="1.51"/><path d="M419,636L588,659L584,488Z" fill="#e29cb8" stroke="#e29cb8" stroke-width="1.51"/><path d="M-74,324L-66,494L80,454Z" fill="#f0b09a" stroke="#f0b09a" stroke-width="1.51"/><path d="M-50,-213L-85,-21L116,-24Z" fill="#f3d083" stroke="#f3d083" stroke-width="1.51"/><path d="M944,-13L784,-36L756,149Z" fill="#efac9e" stroke="#efac9e" stroke-width="1.51"/><path d="M756,149L784,-36L598,-38Z" fill="#f1ac9c" stroke="#f1ac9c" stroke-width="1.51"/><path d="M248,-175L91,-207L116,-24Z" fill="#e3d39c" stroke="#e3d39c" stroke-width="1.51"/><path d="M413,-201L91,-207L248,-175Z" fill="#d6d5ac" stroke="#d6d5ac" stroke-width="1.51"/><path d="M588,659L751,632L584,488Z" fill="#ed8cac" stroke="#ed8cac" stroke-width="1.51"/><path d="M784,-36L750,-197L598,-38Z" fill="#f5ab96" stroke="#f5ab96" stroke-width="1.51"/><path d="M588,-191L750,-197L413,-201Z" fill="#e8baa2" stroke="#e8baa2" stroke-width="1.51"/><path d="M413,-201L-50,-213L91,-207Z" fill="#e3d39c" stroke="#e3d39c" stroke-width="1.51"/><path d="M-85,-21L-233,148L-80,136Z" fill="#e5d399" stroke="#e5d399" stroke-width="1.51"/><path d="M-80,136L-233,148L-74,324Z" fill="#ced7b6" stroke="#ced7b6" stroke-width="1.51"/><path d="M-74,324L-237,485L-66,494Z" fill="#f2ae98" stroke="#f2ae98" stroke-width="1.51"/><path d="M-85,-21L-257,-15L-233,148Z" fill="#edd18d" stroke="#edd18d" stroke-width="1.51"/><path d="M91,-207L-50,-213L116,-24Z" fill="#eed18c" stroke="#eed18c" stroke-width="1.51"/><path d="M924,-205L-50,-213L413,-201Z" fill="#d5ceb3" stroke="#d5ceb3" stroke-width="1.51"/><path d="M952,495L952,295L765,457Z" fill="#ee8bab" stroke="#ee8bab" stroke-width="1.51"/><path d="M765,457L952,295L753,332Z" fill="#e598b5" stroke="#e598b5" stroke-width="1.51"/><path d="M784,-36L924,-205L750,-197Z" fill="#f5ab96" stroke="#f5ab96" stroke-width="1.51"/><path d="M952,295L952,142L756,149Z" fill="#d2b3c4" stroke="#d2b3c4" stroke-width="1.51"/><path d="M-233,148L-254,294L-74,324Z" fill="#d0d1b6" stroke="#d0d1b6" stroke-width="1.51"/><path d="M-241,639L-86,666L-66,494Z" fill="#f5ab96" stroke="#f5ab96" stroke-width="1.51"/><path d="M-66,494L-86,666L82,623Z" fill="#f5ab96" stroke="#f5ab96" stroke-width="1.51"/><path d="M82,623L-86,666L283,652Z" fill="#ebaea4" stroke="#ebaea4" stroke-width="1.51"/><path d="M283,652L-86,666L588,659Z" fill="#d7b2be" stroke="#d7b2be" stroke-width="1.51"/><path d="M952,142L944,-13L756,149Z" fill="#e6afac" stroke="#e6afac" stroke-width="1.51"/><path d="M-254,294L-237,485L-74,324Z" fill="#e7bca3" stroke="#e7bca3" stroke-width="1.51"/><path d="M-233,148L-257,-15L-254,294Z" fill="#dad5a7" stroke="#dad5a7" stroke-width="1.51"/><path d="M-232,-214L-257,-15L-85,-21Z" fill="#f3d083" stroke="#f3d083" stroke-width="1.51"/><path d="M751,632L952,495L765,457Z" fill="#f383a6" stroke="#f383a6" stroke-width="1.51"/><path d="M751,632L922,652L952,495Z" fill="#f383a6" stroke="#f383a6" stroke-width="1.51"/><path d="M588,659L922,652L751,632Z" fill="#f383a6" stroke="#f383a6" stroke-width="1.51"/><path d="M944,-13L924,-205L784,-36Z" fill="#f5ab96" stroke="#f5ab96" stroke-width="1.51"/><path d="M750,-197L924,-205L413,-201Z" fill="#f4ab96" stroke="#f4ab96" stroke-width="1.51"/><path d="M-254,294L-241,639L-237,485Z" fill="#f5ab96" stroke="#f5ab96" stroke-width="1.51"/><path d="M-237,485L-241,639L-66,494Z" fill="#f5ab96" stroke="#f5ab96" stroke-width="1.51"/><path d="M-50,-213L-232,-214L-85,-21Z" fill="#f3d083" stroke="#f3d083" stroke-width="1.51"/></svg>