<svg xmlns="http://www.w3.org/2000/svg" width="700" height="450"><path d="M288,312L414,313L428,158Z" fill="#afe8bf" stroke="#afe8bf" stroke-width="1.51"/><path d="M428,158L262,123L288,312Z" fill="#b0eab7" stroke="#b0eab7" stroke-width="1.51"/><path d="M428,158L427,-29L262,123Z" fill="#c5d9ba" stroke="#c5d9ba" stroke-width="1.51"/><path d="M601,298L579,119L428,158Z" fill="#bfd9c7" stroke="#bfd9c7" stroke-width="1.51"/><path d="M414,313L601,298L428,158Z" fill="#b9dec6" stroke="#b9dec6" stroke-width="1.51"/><path d="M414,313L443,472L601,298Z" fill="#c6cdd4" stroke="#c6cdd4" stroke-width="1.51"/><path d="M288,312L443,472L414,313Z" fill="#bfd7cc" stroke="#bfd7cc" stroke-width="1.51"/><path d="M579,119L427,-29L428,158Z" fill="#cdcdc3" stroke="#cdcdc3" stroke-width="1.51"/><path d="M262,123L93,144L288,312Z" fill="#bfdeb8" stroke="#bfdeb8" stroke-width="1.51"/><path d="M288,312L266,491L443,472Z" fill="#c5cfd1" stroke="#c5cfd1" stroke-width="1.51"/><path d="M116,-24L93,144L262,123Z" fill="#d8c6b9" stroke="#d8c6b9" stroke-width="1.51"/><path d="M80,454L266,491L288,312Z" fill="#d1c3d1" stroke="#d1c3d1" stroke-width="1.51"/><path d="M93,144L77,319L288,312Z" fill="#c5d7bc" stroke="#c5d7bc" stroke-width="1.51"/><path d="M427,-29L243,-44L262,123Z" fill="#d2cbb9" stroke="#d2cbb9" stroke-width="1.51"/><path d="M243,-44L116,-24L262,123Z" fill="#dcc1b9" stroke="#dcc1b9" stroke-width="1.51"/><path d="M443,472L584,488L601,298Z" fill="#d0bde0" stroke="#d0bde0" stroke-width="1.51"/><path d="M419,636L584,488L443,472Z" fill="#d0bfdf" stroke="#d0bfdf" stroke-width="1.51"/><path d="M77,319L80,454L288,312Z" fill="#d1c6ca" stroke="#d1c6ca" stroke-width="1.51"/><path d="M427,-29L248,-175L243,-44Z" fill="#d6c8b9" stroke="#d6c8b9" stroke-width="1.51"/><path d="M579,119L598,-38L427,-29Z" fill="#dcbcc8" stroke="#dcbcc8" stroke-width="1.51"/><path d="M756,149L598,-38L579,119Z" fill="#dabad0" stroke="#dabad0" stroke-width="1.51"/><path d="M601,298L756,149L579,119Z" fill="#c8cdd1" stroke="#c8cdd1" stroke-width="1.51"/><path d="M753,332L756,149L601,298Z" fill="#cac7d9" stroke="#cac7d9" stroke-width="1.51"/><path d="M266,491L419,636L443,472Z" fill="#c8cad7" stroke="#c8cad7" stroke-width="1.51"/><path d="M283,652L419,636L266,491Z" fill="#c9cad4" stroke="#c9cad4" stroke-width="1.51"/><path d="M584,488L753,332L601,298Z" fill="#d2bae3" stroke="#d2bae3" stroke-width="1.51"/><path d="M243,-44L248,-175L116,-24Z" fill="#dfbdba" stroke="#dfbdba" stroke-width="1.51"/><path d="M413,-201L248,-175L427,-29Z" fill="#d2ccba" stroke="#d2ccba" stroke-width="1.51"/><path d="M82,623L283,652L266,491Z" fill="#d5bed4" stroke="#d5bed4" stroke-width="1.51"/><path d="M588,-191L413,-201L427,-29Z" fill="#dac0c3" stroke="#dac0c3" stroke-width="1.51"/><path d="M80,454L82,623L266,491Z" fill="#dbb6d5" stroke="#dbb6d5" stroke-width="1.51"/><path d="M77,319L-74,324L80,454Z" fill="#deb9ca" stroke="#deb9ca" stroke-width="1.51"/><path d="M-80,136L-74,324L77,319Z" fill="#d5c7bd" stroke="#d5c7bd" stroke-width="1.51"/><path d="M-80,136L77,319L93,144Z" fill="#d2ccb9" stroke="#d2ccb9" stroke-width="1.51"/><path d="M-85,-21L-80,136L93,144Z" fill="#e5b5ba" stroke="#e5b5ba" stroke-width="1.51"/><path d="M-85,-21L93,144L116,-24Z" fill="#e9b1ba" stroke="#e9b1ba" stroke-width="1.51"/><path d="M584,488L765,457L753,332Z" fill="#daabed" stroke="#daabed" stroke-width="1.51"/><path d="M753,332L952,295L756,149Z" fill="#cac8d9" stroke="#cac8d9" stroke-width="1.51"/><path d="M751,632L765,457L584,488Z" fill="#dca6f0" stroke="#dca6f0" stroke-width="1.51"/><path d="M-66,494L82,623L80,454Z" fill="#e5aad5" stroke="#e5aad5" stroke-width="1.51"/><path d="M598,-38L588,-191L427,-29Z" fill="#deb9c8" stroke="#deb9c8" stroke-width="1.51"/><path d="M750,-197L588,-191L598,-38Z" fill="#e4add1" stroke="#e4add1" stroke-width="1.51"/><path d="M283,652L588,659L419,636Z" fill="#ccc4db" stroke="#ccc4db" stroke-width="1.51"/><path d="M419,636L588,659L584,488Z" fill="#d2bae3" stroke="#d2bae3" stroke-width="1.51"/><path d="M-74,324L-66,494L80,454Z" fill="#e5aad2" stroke="#e5aad2" stroke-width="1.51"/><path d="M-50,-213L-85,-21L116,-24Z" fill="#f0a6ba" stroke="#f0a6ba" stroke-width="1.51"/><path d="M944,-13L784,-36L756,149Z" fill="#e3acd5" stroke="#e3acd5" stroke-width="1.51"/><path d="M756,149L784,-36L598,-38Z" fill="#e4aad5" stroke="#e4aad5" stroke-width="1.51"/><path d="M248,-175L91,-207L116,-24Z" fill="#e4b8ba" stroke="#e4b8ba" stroke-width="1.51"/><path d="M413,-201L91,-207L248,-175Z" fill="#dbc3b9" stroke="#dbc3b9" stroke-width="1.51"/><path d="M588,659L751,632L584,488Z" fill="#d9adec" stroke="#d9adec" stroke-width="1.51"/><path d="M784,-36L750,-197L598,-38Z" fill="#e7a6d5" stroke="#e7a6d5" stroke-width="1.51"/><path d="M588,-191L750,-197L413,-201Z" fill="#e1b3cc" stroke="#e1b3cc" stroke-width="1.51"/><path d="M413,-201L-50,-213L91,-207Z" fill="#e4b8ba" stroke="#e4b8ba" stroke-width="1.51"/><path d="M-85,-21L-233,148L-80,136Z" fill="#e5b6ba" stroke="#e5b6ba" stroke-width="1.51"/><path d="M-80,136L-233,148L-74,324Z" fill="#d5c9b9" stroke="#d5c9b9" stroke-width="1.51"/><path d="M-74,324L-237,485L-66,494Z" fill="#e6a9d3" stroke="#e6a9d3" stroke-width="1.51"/><path d="M-85,-21L-257,-15L-233,148Z" fill="#ecadba" stroke="#ecadba" stroke-width="1.51"/><path d="M91,-207L-50,-213L116,-24Z" fill="#ecacba" stroke="#ecacba" stroke-width="1.51"/><path d="M924,-205L-50,-213L413,-201Z" fill="#d7c4c0" stroke="#d7c4c0" stroke-width="1.51"/><path d="M952,495L952,295L765,457Z" fill="#d9acec" stroke="#d9acec" stroke-width="1.51"/><path d="M765,457L952,295L753,332Z" fill="#d5b6e5" stroke="#d5b6e5" stroke-width="1.51"/><path d="M784,-36L924,-205L750,-197Z" fill="#e7a6d5" stroke="#e7a6d5" stroke-width="1.51"/><path d="M952,295L952,142L756,149Z" fill="#cbc8d5" stroke="#cbc8d5" stroke-width="1.51"/><path d="M-233,148L-254,294L-74,324Z" fill="#d5c8bd" stroke="#d5c8bd" stroke-width="1.51"/><path d="M-241,639L-86,666L-66,494Z" fill="#e7a6d5" stroke="#e7a6d5" stroke-width="1.51"/><path d="M-66,494L-86,666L82,623Z" fill="#e7a6d5" stroke="#e7a6d5" stroke-width="1.51"/><path d="M82,623L-86,666L283,652Z" fill="#e0b1d5" stroke="#e0b1d5" stroke-width="1.51"/><path d="M283,652L-86,666L588,659Z" fill="#d0c4d5" stroke="#d0c4d5" stroke-width="1.51"/><path d="M952,142L944,-13L756,149Z" fill="#dbb7d5" stroke="#dbb7d5" stroke-width="1.51"/><path d="M-254,294L-237,485L-74,324Z" fill="#e0b5cb" stroke="#e0b5cb" stroke-width="1.51"/><path d="M-233,148L-257,-15L-254,294Z" fill="#ddc0b9" stroke="#ddc0b9" stroke-width="1.51"/><path d="M-232,-214L-257,-15L-85,-21Z" fill="#f0a6ba" stroke="#f0a6ba" stroke-width="1.51"/><path d="M751,632L952,495L765,457Z" fill="#dca6f0" stroke="#dca6f0" stroke-width="1.51"/><path d="M751,632L922,652L952,495Z" fill="#dca6f0" stroke="#dca6f0" stroke-width="1.51"/><path d="M588,659L922,652L751,632Z" fill="#dca6f0" stroke="#dca6f0" stroke-width="1.51"/><path d="M944,-13L924,-205L784,-36Z" fill="#e7a6d5" stroke="#e7a6d5" stroke-width="1.51"/><path d="M750,-197L924,-205L413,-201Z" fill="#e7a6d4" stroke="#e7a6d4" stroke-width="1.51"/><path d="M-254,294L-241,639L-237,485Z" fill="#e7a6d5" stroke="#e7a6d5" stroke-width="1.51"/><path d="M-237,485L-241,639L-66,494Z" fill="#e7a6d5" stroke="#e7a6d5" stroke-width="1.51"/><path d="M-50,-213L-232,-214L-85,-21Z" fill="#f0a6ba" stroke="#f0a6ba" stroke-width="1.51"/></svg>