<svg xmlns="http://www.w3.org/2000/svg" width="700" height="450"><path d="M288,312L414,313L428,158Z" fill="#eadcaf" stroke="#eadcaf" stroke-width="1.51"/><path d="M428,158L262,123L288,312Z" fill="#ecd6ae" stroke="#ecd6ae" stroke-width="1.51"/><path d="M428,158L427,-29L262,123Z" fill="#dfcbc1" stroke="#dfcbc1" stroke-width="1.51"/><path d="M601,298L579,119L428,158Z" fill="#dcd9c0" stroke="#dcd9c0" stroke-width="1.51"/><path d="M414,313L601,298L428,158Z" fill="#e1dcb9" stroke="#e1dcb9" stroke-width="1.51"/><path d="M414,313L443,472L601,298Z" fill="#d1ddcb" stroke="#d1ddcb" stroke-width="1.51"/><path d="M288,312L443,472L414,313Z" fill="#daddc1" stroke="#daddc1" stroke-width="1.51"/><path d="M579,119L427,-29L428,158Z" fill="#d6cbcc" stroke="#d6cbcc" stroke-width="1.51"/><path d="M262,123L93,144L288,312Z" fill="#e4cdbb" stroke="#e4cdbb" stroke-width="1.51"/><path d="M288,312L266,491L443,472Z" fill="#d3dcc9" stroke="#d3dcc9" stroke-width="1.51"/><path d="M116,-24L93,144L262,123Z" fill="#d3bbd3" stroke="#d3bbd3" stroke-width="1.51"/><path d="M80,454L266,491L288,312Z" fill="#cad3d5" stroke="#cad3d5" stroke-width="1.51"/><path d="M93,144L77,319L288,312Z" fill="#deccc1" stroke="#deccc1" stroke-width="1.51"/><path d="M427,-29L243,-44L262,123Z" fill="#d7c0ce" stroke="#d7c0ce" stroke-width="1.51"/><path d="M243,-44L116,-24L262,123Z" fill="#ceb7d8" stroke="#ceb7d8" stroke-width="1.51"/><path d="M443,472L584,488L601,298Z" fill="#c1dedb" stroke="#c1dedb" stroke-width="1.51"/><path d="M419,636L584,488L443,472Z" fill="#c2ded9" stroke="#c2ded9" stroke-width="1.51"/><path d="M77,319L80,454L288,312Z" fill="#cfcdd3" stroke="#cfcdd3" stroke-width="1.51"/><path d="M427,-29L248,-175L243,-44Z" fill="#d4bdd1" stroke="#d4bdd1" stroke-width="1.51"/><path d="M579,119L598,-38L427,-29Z" fill="#c7c4dc" stroke="#c7c4dc" stroke-width="1.51"/><path d="M756,149L598,-38L579,119Z" fill="#c3ccde" stroke="#c3ccde" stroke-width="1.51"/><path d="M601,298L756,149L579,119Z" fill="#d2d9cc" stroke="#d2d9cc" stroke-width="1.51"/><path d="M753,332L756,149L601,298Z" fill="#cbddd1" stroke="#cbddd1" stroke-width="1.51"/><path d="M266,491L419,636L443,472Z" fill="#ceddce" stroke="#ceddce" stroke-width="1.51"/><path d="M283,652L419,636L266,491Z" fill="#cfdcce" stroke="#cfdcce" stroke-width="1.51"/><path d="M584,488L753,332L601,298Z" fill="#bddede" stroke="#bddede" stroke-width="1.51"/><path d="M243,-44L248,-175L116,-24Z" fill="#cbb5db" stroke="#cbb5db" stroke-width="1.51"/><path d="M413,-201L248,-175L427,-29Z" fill="#d6c1ce" stroke="#d6c1ce" stroke-width="1.51"/><path d="M82,623L283,652L266,491Z" fill="#c5d3da" stroke="#c5d3da" stroke-width="1.51"/><path d="M588,-191L413,-201L427,-29Z" fill="#cbc1d9" stroke="#cbc1d9" stroke-width="1.51"/><path d="M80,454L82,623L266,491Z" fill="#bfcee1" stroke="#bfcee1" stroke-width="1.51"/><path d="M77,319L-74,324L80,454Z" fill="#c3c4df" stroke="#c3c4df" stroke-width="1.51"/><path d="M-80,136L-74,324L77,319Z" fill="#d2c1d2" stroke="#d2c1d2" stroke-width="1.51"/><path d="M-80,136L77,319L93,144Z" fill="#d7c0cd" stroke="#d7c0cd" stroke-width="1.51"/><path d="M-85,-21L-80,136L93,144Z" fill="#c5b0e3" stroke="#c5b0e3" stroke-width="1.51"/><path d="M-85,-21L93,144L116,-24Z" fill="#c1ade7" stroke="#c1ade7" stroke-width="1.51"/><path d="M584,488L765,457L753,332Z" fill="#acdfec" stroke="#acdfec" stroke-width="1.51"/><path d="M753,332L952,295L756,149Z" fill="#cbddd1" stroke="#cbddd1" stroke-width="1.51"/><path d="M751,632L765,457L584,488Z" fill="#a6dff0" stroke="#a6dff0" stroke-width="1.51"/><path d="M-66,494L82,623L80,454Z" fill="#b4c5ed" stroke="#b4c5ed" stroke-width="1.51"/><path d="M598,-38L588,-191L427,-29Z" fill="#c4c2e0" stroke="#c4c2e0" stroke-width="1.51"/><path d="M750,-197L588,-191L598,-38Z" fill="#b7c3eb" stroke="#b7c3eb" stroke-width="1.51"/><path d="M283,652L588,659L419,636Z" fill="#c8ded4" stroke="#c8ded4" stroke-width="1.51"/><path d="M419,636L588,659L584,488Z" fill="#bddede" stroke="#bddede" stroke-width="1.51"/><path d="M-74,324L-66,494L80,454Z" fill="#b6c3ec" stroke="#b6c3ec" stroke-width="1.51"/><path d="M-50,-213L-85,-21L116,-24Z" fill="#b7a6f0" stroke="#b7a6f0" stroke-width="1.51"/><path d="M944,-13L784,-36L756,149Z" fill="#b6c7eb" stroke="#b6c7eb" stroke-width="1.51"/><path d="M756,149L784,-36L598,-38Z" fill="#b4c6ec" stroke="#b4c6ec" stroke-width="1.51"/><path d="M248,-175L91,-207L116,-24Z" fill="#c7b1e1" stroke="#c7b1e1" stroke-width="1.51"/><path d="M413,-201L91,-207L248,-175Z" fill="#cfb9d6" stroke="#cfb9d6" stroke-width="1.51"/><path d="M588,659L751,632L584,488Z" fill="#aedeea" stroke="#aedeea" stroke-width="1.51"/><path d="M784,-36L750,-197L598,-38Z" fill="#b0c3f0" stroke="#b0c3f0" stroke-width="1.51"/><path d="M588,-191L750,-197L413,-201Z" fill="#bfc2e4" stroke="#bfc2e4" stroke-width="1.51"/><path d="M413,-201L-50,-213L91,-207Z" fill="#c7b1e1" stroke="#c7b1e1" stroke-width="1.51"/><path d="M-85,-21L-233,148L-80,136Z" fill="#c5b0e2" stroke="#c5b0e2" stroke-width="1.51"/><path d="M-80,136L-233,148L-74,324Z" fill="#d5bed0" stroke="#d5bed0" stroke-width="1.51"/><path d="M-74,324L-237,485L-66,494Z" fill="#b4c3ee" stroke="#b4c3ee" stroke-width="1.51"/><path d="M-85,-21L-257,-15L-233,148Z" fill="#bdaaea" stroke="#bdaaea" stroke-width="1.51"/><path d="M91,-207L-50,-213L116,-24Z" fill="#bdaaeb" stroke="#bdaaeb" stroke-width="1.51"/><path d="M924,-205L-50,-213L413,-201Z" fill="#d0c1d4" stroke="#d0c1d4" stroke-width="1.51"/><path d="M952,495L952,295L765,457Z" fill="#aedfeb" stroke="#aedfeb" stroke-width="1.51"/><path d="M765,457L952,295L753,332Z" fill="#b9dee2" stroke="#b9dee2" stroke-width="1.51"/><path d="M784,-36L924,-205L750,-197Z" fill="#b0c3f0" stroke="#b0c3f0" stroke-width="1.51"/><path d="M952,295L952,142L756,149Z" fill="#cddad0" stroke="#cddad0" stroke-width="1.51"/><path d="M-233,148L-254,294L-74,324Z" fill="#d3c1d1" stroke="#d3c1d1" stroke-width="1.51"/><path d="M-241,639L-86,666L-66,494Z" fill="#b0c3f0" stroke="#b0c3f0" stroke-width="1.51"/><path d="M-66,494L-86,666L82,623Z" fill="#b0c3f0" stroke="#b0c3f0" stroke-width="1.51"/><path d="M82,623L-86,666L283,652Z" fill="#bacae6" stroke="#bacae6" stroke-width="1.51"/><path d="M283,652L-86,666L588,659Z" fill="#cad7d5" stroke="#cad7d5" stroke-width="1.51"/><path d="M952,142L944,-13L756,149Z" fill="#bfcee1" stroke="#bfcee1" stroke-width="1.51"/><path d="M-254,294L-237,485L-74,324Z" fill="#c1c2e3" stroke="#c1c2e3" stroke-width="1.51"/><path d="M-233,148L-257,-15L-254,294Z" fill="#cdb7d9" stroke="#cdb7d9" stroke-width="1.51"/><path d="M-232,-214L-257,-15L-85,-21Z" fill="#b7a6f0" stroke="#b7a6f0" stroke-width="1.51"/><path d="M751,632L952,495L765,457Z" fill="#a6dff0" stroke="#a6dff0" stroke-width="1.51"/><path d="M751,632L922,652L952,495Z" fill="#a6dff0" stroke="#a6dff0" stroke-width="1.51"/><path d="M588,659L922,652L751,632Z" fill="#a6dff0" stroke="#a6dff0" stroke-width="1.51"/><path d="M944,-13L924,-205L784,-36Z" fill="#b0c3f0" stroke="#b0c3f0" stroke-width="1.51"/><path d="M750,-197L924,-205L413,-201Z" fill="#b1c3f0" stroke="#b1c3f0" stroke-width="1.51"/><path d="M-254,294L-241,639L-237,485Z" fill="#b0c3f0" stroke="#b0c3f0" stroke-width="1.51"/><path d="M-237,485L-241,639L-66,494Z" fill="#b0c3f0" stroke="#b0c3f0" stroke-width="1.51"/><path d="M-50,-213L-232,-214L-85,-21Z" fill="#b7a6f0" stroke="#b7a6f0" stroke-width="1.51"/></svg>