<svg xmlns="http://www.w3.org/2000/svg" width="700" height="450"><path d="M288,312L414,313L428,158Z" fill="#ecb0d9" stroke="#ecb0d9" stroke-width="1.51"/><path d="M428,158L262,123L288,312Z" fill="#ebaedf" stroke="#ebaedf" stroke-width="1.51"/><path d="M428,158L427,-29L262,123Z" fill="#ddc1dd" stroke="#ddc1dd" stroke-width="1.51"/><path d="M601,298L579,119L428,158Z" fill="#e1c1d1" stroke="#e1c1d1" stroke-width="1.51"/><path d="M414,313L601,298L428,158Z" fill="#e5bbd2" stroke="#e5bbd2" stroke-width="1.51"/><path d="M414,313L443,472L601,298Z" fill="#dacdc4" stroke="#dacdc4" stroke-width="1.51"/><path d="M288,312L443,472L414,313Z" fill="#e1c3cb" stroke="#e1c3cb" stroke-width="1.51"/><path d="M579,119L427,-29L428,158Z" fill="#d4cdd4" stroke="#d4cdd4" stroke-width="1.51"/><path d="M262,123L93,144L288,312Z" fill="#e1bcdf" stroke="#e1bcdf" stroke-width="1.51"/><path d="M288,312L266,491L443,472Z" fill="#dbcbc7" stroke="#dbcbc7" stroke-width="1.51"/><path d="M116,-24L93,144L262,123Z" fill="#cad4de" stroke="#cad4de" stroke-width="1.51"/><path d="M80,454L266,491L288,312Z" fill="#cfd6c6" stroke="#cfd6c6" stroke-width="1.51"/><path d="M93,144L77,319L288,312Z" fill="#dcc2db" stroke="#dcc2db" stroke-width="1.51"/><path d="M427,-29L243,-44L262,123Z" fill="#d0cede" stroke="#d0cede" stroke-width="1.51"/><path d="M243,-44L116,-24L262,123Z" fill="#c4d9dd" stroke="#c4d9dd" stroke-width="1.51"/><path d="M443,472L584,488L601,298Z" fill="#cedcb8" stroke="#cedcb8" stroke-width="1.51"/><path d="M419,636L584,488L443,472Z" fill="#cfdbb9" stroke="#cfdbb9" stroke-width="1.51"/><path d="M77,319L80,454L288,312Z" fill="#d0d4cd" stroke="#d0d4cd" stroke-width="1.51"/><path d="M427,-29L248,-175L243,-44Z" fill="#cdd2de" stroke="#cdd2de" stroke-width="1.51"/><path d="M579,119L598,-38L427,-29Z" fill="#c5ddcf" stroke="#c5ddcf" stroke-width="1.51"/><path d="M756,149L598,-38L579,119Z" fill="#c6dfc7" stroke="#c6dfc7" stroke-width="1.51"/><path d="M601,298L756,149L579,119Z" fill="#d8cdc8" stroke="#d8cdc8" stroke-width="1.51"/><path d="M753,332L756,149L601,298Z" fill="#d5d3bf" stroke="#d5d3bf" stroke-width="1.51"/><path d="M266,491L419,636L443,472Z" fill="#d8d0c1" stroke="#d8d0c1" stroke-width="1.51"/><path d="M283,652L419,636L266,491Z" fill="#d7d0c3" stroke="#d7d0c3" stroke-width="1.51"/><path d="M584,488L753,332L601,298Z" fill="#cbdfb5" stroke="#cbdfb5" stroke-width="1.51"/><path d="M243,-44L248,-175L116,-24Z" fill="#c1dcdd" stroke="#c1dcdd" stroke-width="1.51"/><path d="M413,-201L248,-175L427,-29Z" fill="#d0cedd" stroke="#d0cedd" stroke-width="1.51"/><path d="M82,623L283,652L266,491Z" fill="#cbdcc3" stroke="#cbdcc3" stroke-width="1.51"/><path d="M588,-191L413,-201L427,-29Z" fill="#c7dad3" stroke="#c7dad3" stroke-width="1.51"/><path d="M80,454L82,623L266,491Z" fill="#c3e2c2" stroke="#c3e2c2" stroke-width="1.51"/><path d="M77,319L-74,324L80,454Z" fill="#c2e1cc" stroke="#c2e1cc" stroke-width="1.51"/><path d="M-80,136L-74,324L77,319Z" fill="#cdd3da" stroke="#cdd3da" stroke-width="1.51"/><path d="M-80,136L77,319L93,144Z" fill="#d0cede" stroke="#d0cede" stroke-width="1.51"/><path d="M-85,-21L-80,136L93,144Z" fill="#b8e3dd" stroke="#b8e3dd" stroke-width="1.51"/><path d="M-85,-21L93,144L116,-24Z" fill="#b3e7dd" stroke="#b3e7dd" stroke-width="1.51"/><path d="M584,488L765,457L753,332Z" fill="#beedaa" stroke="#beedaa" stroke-width="1.51"/><path d="M753,332L952,295L756,149Z" fill="#d6d2bf" stroke="#d6d2bf" stroke-width="1.51"/><path d="M751,632L765,457L584,488Z" fill="#baf0a6" stroke="#baf0a6" stroke-width="1.51"/><path d="M-66,494L82,623L80,454Z" fill="#b6edc1" stroke="#b6edc1" stroke-width="1.51"/><path d="M598,-38L588,-191L427,-29Z" fill="#c2e0cf" stroke="#c2e0cf" stroke-width="1.51"/><path d="M750,-197L588,-191L598,-38Z" fill="#b7eac6" stroke="#b7eac6" stroke-width="1.51"/><path d="M283,652L588,659L419,636Z" fill="#d4d6bd" stroke="#d4d6bd" stroke-width="1.51"/><path d="M419,636L588,659L584,488Z" fill="#cbdfb5" stroke="#cbdfb5" stroke-width="1.51"/><path d="M-74,324L-66,494L80,454Z" fill="#b6ecc5" stroke="#b6ecc5" stroke-width="1.51"/><path d="M-50,-213L-85,-21L116,-24Z" fill="#a6f0dc" stroke="#a6f0dc" stroke-width="1.51"/><path d="M944,-13L784,-36L756,149Z" fill="#b9ebc2" stroke="#b9ebc2" stroke-width="1.51"/><path d="M756,149L784,-36L598,-38Z" fill="#b7ecc1" stroke="#b7ecc1" stroke-width="1.51"/><path d="M248,-175L91,-207L116,-24Z" fill="#bbe1dd" stroke="#bbe1dd" stroke-width="1.51"/><path d="M413,-201L91,-207L248,-175Z" fill="#c7d7dd" stroke="#c7d7dd" stroke-width="1.51"/><path d="M588,659L751,632L584,488Z" fill="#c0ebab" stroke="#c0ebab" stroke-width="1.51"/><path d="M784,-36L750,-197L598,-38Z" fill="#b2f0c1" stroke="#b2f0c1" stroke-width="1.51"/><path d="M588,-191L750,-197L413,-201Z" fill="#bde5cb" stroke="#bde5cb" stroke-width="1.51"/><path d="M413,-201L-50,-213L91,-207Z" fill="#bbe1dd" stroke="#bbe1dd" stroke-width="1.51"/><path d="M-85,-21L-233,148L-80,136Z" fill="#b9e3dd" stroke="#b9e3dd" stroke-width="1.51"/><path d="M-80,136L-233,148L-74,324Z" fill="#ced1de" stroke="#ced1de" stroke-width="1.51"/><path d="M-74,324L-237,485L-66,494Z" fill="#b4edc3" stroke="#b4edc3" stroke-width="1.51"/><path d="M-85,-21L-257,-15L-233,148Z" fill="#aeebdd" stroke="#aeebdd" stroke-width="1.51"/><path d="M91,-207L-50,-213L116,-24Z" fill="#aeebdd" stroke="#aeebdd" stroke-width="1.51"/><path d="M924,-205L-50,-213L413,-201Z" fill="#cbd5d8" stroke="#cbd5d8" stroke-width="1.51"/><path d="M952,495L952,295L765,457Z" fill="#c0ebab" stroke="#c0ebab" stroke-width="1.51"/><path d="M765,457L952,295L753,332Z" fill="#c8e3b2" stroke="#c8e3b2" stroke-width="1.51"/><path d="M784,-36L924,-205L750,-197Z" fill="#b2f0c1" stroke="#b2f0c1" stroke-width="1.51"/><path d="M952,295L952,142L756,149Z" fill="#d5d2c3" stroke="#d5d2c3" stroke-width="1.51"/><path d="M-233,148L-254,294L-74,324Z" fill="#ced2da" stroke="#ced2da" stroke-width="1.51"/><path d="M-241,639L-86,666L-66,494Z" fill="#b2f0c1" stroke="#b2f0c1" stroke-width="1.51"/><path d="M-66,494L-86,666L82,623Z" fill="#b2f0c1" stroke="#b2f0c1" stroke-width="1.51"/><path d="M82,623L-86,666L283,652Z" fill="#bee7c2" stroke="#bee7c2" stroke-width="1.51"/><path d="M283,652L-86,666L588,659Z" fill="#d1d6c3" stroke="#d1d6c3" stroke-width="1.51"/><path d="M952,142L944,-13L756,149Z" fill="#c4e2c2" stroke="#c4e2c2" stroke-width="1.51"/><path d="M-254,294L-237,485L-74,324Z" fill="#bee4cc" stroke="#bee4cc" stroke-width="1.51"/><path d="M-233,148L-257,-15L-254,294Z" fill="#c3dadd" stroke="#c3dadd" stroke-width="1.51"/><path d="M-232,-214L-257,-15L-85,-21Z" fill="#a6f0dc" stroke="#a6f0dc" stroke-width="1.51"/><path d="M751,632L952,495L765,457Z" fill="#baf0a6" stroke="#baf0a6" stroke-width="1.51"/><path d="M751,632L922,652L952,495Z" fill="#baf0a6" stroke="#baf0a6" stroke-width="1.51"/><path d="M588,659L922,652L751,632Z" fill="#baf0a6" stroke="#baf0a6" stroke-width="1.51"/><path d="M944,-13L924,-205L784,-36Z" fill="#b2f0c1" stroke="#b2f0c1" stroke-width="1.51"/><path d="M750,-197L924,-205L413,-201Z" fill="#b2efc2" stroke="#b2efc2" stroke-width="1.51"/><path d="M-254,294L-241,639L-237,485Z" fill="#b2f0c1" stroke="#b2f0c1" stroke-width="1.51"/><path d="M-237,485L-241,639L-66,494Z" fill="#b2f0c1" stroke="#b2f0c1" stroke-width="1.51"/><path d="M-50,-213L-232,-214L-85,-21Z" fill="#a6f0dc" stroke="#a6f0dc" stroke-width="1.51"/></svg>