<svg id="Layer_1" data-name="Layer 1" xmlns="http://www.w3.org/2000/svg" viewBox="0 0 601.59 601.59"><defs><style>.cls-1{fill:none;stroke:#c0e3e7;stroke-width:21px;}.cls-2{fill:#c0e3e7;}</style></defs><circle class="cls-1" cx="300.79" cy="300.79" r="290.29"/><path class="cls-2" d="M222.54,122.4q22.94,0,34.17,10.75T268,164.94a35.5,35.5,0,0,1-5.5,19.72q-5.51,8.47-16.25,13.14t-26.53,4.66l1-10.75a83,83,0,0,1,17,2,63.52,63.52,0,0,1,18.53,7.17,42.65,42.65,0,0,1,14.82,14.34q5.85,9.19,5.85,23.54,0,15.77-5.14,25.81a39.91,39.91,0,0,1-13.5,15.54,52.19,52.19,0,0,1-17.93,7.52,88.14,88.14,0,0,1-18.4,2H162.31a14.3,14.3,0,0,1-14.58-14.58V137a14.28,14.28,0,0,1,14.58-14.57Zm-4.3,28.2H175.69l3.11-3.83V190l-2.87-2.15h43a19,19,0,0,0,12.43-4.54q5.49-4.53,5.5-13.14,0-10.27-5.14-14.94T218.24,150.6Zm1.91,65.48h-43.5l2.15-1.91V264.6l-2.39-2.39h45.41q11,0,17.45-5.85t6.45-17.57q0-10.75-4.3-15.54a18.5,18.5,0,0,0-10.28-6A56.13,56.13,0,0,0,220.15,216.08Z" transform="translate(-20.75 -20.38)"/><path class="cls-2" d="M378,348.12a14.39,14.39,0,0,1,10.16,4.18,13.73,13.73,0,0,1,4.42,10.4V500.84a13.56,13.56,0,0,1-4.54,10.4,15,15,0,0,1-10.51,4.18,14.11,14.11,0,0,1-14.82-14.58V362.7a13.92,13.92,0,0,1,4.3-10.4A15.15,15.15,0,0,1,378,348.12Zm-.71,69.55H483.89v27.48H377.3Zm106.59-69.55a14.13,14.13,0,0,1,14.82,14.58V500.84a14.16,14.16,0,0,1-4.18,10.4q-4.18,4.18-11.12,4.18a14.36,14.36,0,0,1-10.16-4.18,13.73,13.73,0,0,1-4.42-10.4V362.7a13.56,13.56,0,0,1,4.54-10.4A15.11,15.11,0,0,1,483.89,348.12Z" transform="translate(-20.75 -20.38)"/></svg>