<?xml version="1.0" encoding="utf-8"?>
<!-- Generator: Adobe Illustrator 22.1.0, SVG Export Plug-In . SVG Version: 6.00 Build 0)  -->
<svg version="1.1" id="Layer_1" xmlns="http://www.w3.org/2000/svg" xmlns:xlink="http://www.w3.org/1999/xlink" x="0px" y="0px"
	 viewBox="0 0 137.4 118.3" style="enable-background:new 0 0 137.4 118.3;" xml:space="preserve">
<style type="text/css">
	.st0{fill:url(#SVGID_1_);}
	.st1{fill:#FFFFFF;}
</style>
<g>
	
		<linearGradient id="SVGID_1_" gradientUnits="userSpaceOnUse" x1="0" y1="70.772" x2="137.4" y2="70.772" gradientTransform="matrix(1 0 0 1 0 -11.622)">
		<stop  offset="0" style="stop-color:#FF6605"/>
		<stop  offset="0.7729" style="stop-color:#FF660A"/>
		<stop  offset="1" style="stop-color:#FF660A"/>
	</linearGradient>
	<path class="st0" d="M32.8,8.5C11,16.8,0,30.7,0,49.7c0,14.6,7.1,31.6,19,45.5c12.7,14.7,28.6,23.1,43.8,23.1
		c9.8,0,19.1-3.3,28.3-10.1c10.7-7.9,22.2-20.5,30.8-33.6c12.8-19.4,15.5-33.6,15.5-42c0-10.3-3.9-18.3-11.6-23.7
		C117.3,3,104,0,86.1,0C74.3,0.1,51.8,1.2,32.8,8.5"/>
	<path class="st1" d="M118.6,72c-2.1,0-4.9-0.5-9.4-5.4C103.4,60.2,96.6,52,96.6,52l10.3-9.7c6.1-5.7,7.8-6.1,8.3-6.2h-9.6
		c-1.9,2.6-4.1,4.5-4.1,4.5L90.4,50.9V18.3L82,20.5c1.1,1.5,1.5,3.9,1.5,9.4v33.7c0,6.8-0.4,7.5-1.1,9.5h9c-0.6-1.6-1-2.7-1-9.5
		v-9.7c0,0,5,6,11.2,13.4c3.9,4.6,7.1,6.7,10.8,6.7c2.9,0,5.6-0.7,7.4-2.1C119.4,71.9,119,72,118.6,72 M68.8,52.3
		c-4.9-2.4-9.5-4.6-9.5-8.5c0-3.3,3.5-4.7,7.2-4.7c3.8,0,7.3,1.3,10.2,3.7v-5.5c-3-1.7-6.6-2.5-10.1-2.5c-6.6,0-13.9,3.3-13.9,10.8
		c0,6.2,5.5,8.9,10.6,11.3c4.6,2.2,8.9,4.1,8.9,8.1s-4.3,4.9-7.7,4.9c-3.2,0-8.1-1.3-12.1-3.5V72c3.9,1.6,7.7,2.4,11.9,2.4
		c6.8,0,14.9-2.8,14.9-10.9C79.3,57.8,74,54.9,68.8,52.3 M46,70.2c-3.5-1.6-8.7-1.7-17.2-2.4c-4-0.3-4.7-1.5-4.7-3
		c0-1,0.5-2,1.5-2.9c0.7-0.6,1.6-1,2.6-1.2c1,0.1,1.9,0.2,2.7,0.2c9.5,0,14.8-5.7,14.8-12.5c0-2.9-1.1-6-3-8.1
		c2.1,0,5.9,0.2,7.2,0.5v-4.9c-2.2,0.6-4.9,0.7-7.2,0.7c-1.9,0-3.8-0.4-5.5-0.8c-2.1-0.6-4.5-1.1-6.5-1.1c-9.5,0-15.4,5.8-15.4,13.4
		c0,5.2,3.4,9.8,8.2,11.6c-3.6,1.7-5.6,4.1-5.6,6.9c0,2.7,1.9,5.6,5.7,6.6c-5.5,2.4-10.6,6.7-6.8,11.7c5.6,7.4,25.3,6.6,31.5-1.1
		C53,77.9,49.8,72,46,70.2 M21.9,47.1c0-5,3.1-8.4,8.2-8.4c5.8,0,9,4.3,9,9.8c0,5-2.7,8.5-7.9,8.5C25.1,57,21.9,52.7,21.9,47.1
		 M36.3,85.6c-11.2,1.2-19.9-6.2-9.6-11.9c2.4,0.2,4.2,0.4,8,0.6c7.5,0.3,9.9,2,10.4,4.1C46.1,81.4,43.5,84.8,36.3,85.6"/>
</g>
</svg>
