<?xml version="1.0" encoding="utf-8"?>
<!-- Generator: Adobe Illustrator 21.0.2, SVG Export Plug-In . SVG Version: 6.00 Build 0)  -->
<svg version="1.1" id="Layer_1" xmlns="http://www.w3.org/2000/svg" xmlns:xlink="http://www.w3.org/1999/xlink" x="0px" y="0px"
	 width="750px" height="250px" viewBox="0 0 750 250" style="enable-background:new 0 0 750 250;" xml:space="preserve">
<style type="text/css">
	.st0{fill:url(#SVGID_1_);}
	.st1{fill:#FFFFFF;}
	.st2{enable-background:new    ;}
</style>
<g>
	
		<linearGradient id="SVGID_1_" gradientUnits="userSpaceOnUse" x1="86.6" y1="116.25" x2="224" y2="116.25" gradientTransform="matrix(1 0 0 -1 0 252)">
		<stop  offset="0" style="stop-color:#FF6605"/>
		<stop  offset="0.7729" style="stop-color:#FF660A"/>
		<stop  offset="1" style="stop-color:#FF660A"/>
	</linearGradient>
	<path class="st0" d="M119.4,85.1c-21.8,8.3-32.8,22.2-32.8,41.2c0,14.6,7.1,31.6,19,45.5c12.7,14.7,28.6,23.1,43.8,23.1
		c9.8,0,19.1-3.3,28.3-10.1c10.7-7.9,22.2-20.5,30.8-33.6c12.8-19.4,15.5-33.6,15.5-42c0-10.3-3.9-18.3-11.6-23.7
		c-8.5-5.9-21.8-8.9-39.7-8.9C160.9,76.7,138.4,77.8,119.4,85.1"/>
	<path class="st1" d="M205.2,148.6c-2.1,0-4.9-0.5-9.4-5.4c-5.8-6.4-12.6-14.6-12.6-14.6l10.3-9.7c6.1-5.7,7.8-6.1,8.3-6.2h-9.6
		c-1.9,2.6-4.1,4.5-4.1,4.5L177,127.5V94.9l-8.4,2.2c1.1,1.5,1.5,3.9,1.5,9.4v33.7c0,6.8-0.4,7.5-1.1,9.5h9c-0.6-1.6-1-2.7-1-9.5
		v-9.7c0,0,5,6,11.2,13.4c3.9,4.6,7.1,6.7,10.8,6.7c2.9,0,5.6-0.7,7.4-2.1C206,148.5,205.6,148.6,205.2,148.6 M155.4,128.9
		c-4.9-2.4-9.5-4.6-9.5-8.5c0-3.3,3.5-4.7,7.2-4.7c3.8,0,7.3,1.3,10.2,3.7v-5.5c-3-1.7-6.6-2.5-10.1-2.5c-6.6,0-13.9,3.3-13.9,10.8
		c0,6.2,5.5,8.9,10.6,11.3c4.6,2.2,8.9,4.1,8.9,8.1s-4.3,4.9-7.7,4.9c-3.2,0-8.1-1.3-12.1-3.5v5.6c3.9,1.6,7.7,2.4,11.9,2.4
		c6.8,0,14.9-2.8,14.9-10.9C165.9,134.4,160.6,131.5,155.4,128.9 M132.6,146.8c-3.5-1.6-8.7-1.7-17.2-2.4c-4-0.3-4.7-1.5-4.7-3
		c0-1,0.5-2,1.5-2.9c0.7-0.6,1.6-1,2.6-1.2c1,0.1,1.9,0.2,2.7,0.2c9.5,0,14.8-5.7,14.8-12.5c0-2.9-1.1-6-3-8.1
		c2.1,0,5.9,0.2,7.2,0.5v-4.9c-2.2,0.6-4.9,0.7-7.2,0.7c-1.9,0-3.8-0.4-5.5-0.8c-2.1-0.6-4.5-1.1-6.5-1.1c-9.5,0-15.4,5.8-15.4,13.4
		c0,5.2,3.4,9.8,8.2,11.6c-3.6,1.7-5.6,4.1-5.6,6.9c0,2.7,1.9,5.6,5.7,6.6c-5.5,2.4-10.6,6.7-6.8,11.7c5.6,7.4,25.3,6.6,31.5-1.1
		C139.6,154.5,136.4,148.6,132.6,146.8 M108.5,123.7c0-5,3.1-8.4,8.2-8.4c5.8,0,9,4.3,9,9.8c0,5-2.7,8.5-7.9,8.5
		C111.7,133.6,108.5,129.3,108.5,123.7 M122.9,162.2c-11.2,1.2-19.9-6.2-9.6-11.9c2.4,0.2,4.2,0.4,8,0.6c7.5,0.3,9.9,2,10.4,4.1
		C132.7,158,130.1,161.4,122.9,162.2"/>
</g>
<g class="st2">
	<path class="st1" d="M275.3,95.6h4.9v28.5H276l-15.7-20.3v20.3h-4.9V95.6h4.6l15.3,19.7V95.6z"/>
	<path class="st1" d="M286,99.3v-4.7h5.3v4.7H286z M286.2,124.1v-21.5h4.9v21.5H286.2z"/>
	<path class="st1" d="M306.6,124.6c-6.4,0-11.1-5-11.1-11.2s4.7-11.3,11.2-11.3c4.1,0,6.6,1.5,8.6,3.7l-3.1,3.3
		c-1.5-1.6-3.1-2.7-5.6-2.7c-3.6,0-6.2,3.1-6.2,6.9c0,3.9,2.6,7,6.4,7c2.3,0,4-1.1,5.6-2.7l3,2.9
		C313.2,122.9,310.8,124.6,306.6,124.6z"/>
	<path class="st1" d="M328.5,124.6c-6.6,0-11.4-5-11.4-11.2c0-6.2,4.9-11.3,11.5-11.3c6.6,0,11.4,5,11.4,11.2
		C340,119.5,335.2,124.6,328.5,124.6z M328.5,106.5c-4,0-6.5,3.1-6.5,6.9c0,3.8,2.7,7,6.6,7c4,0,6.5-3.1,6.5-6.9
		C335.1,109.6,332.4,106.5,328.5,106.5z"/>
	<path class="st1" d="M349,124.1h-4.9v-21.5h4.9v4.8c1.3-3.2,3.8-5.4,7.6-5.3v5.2h-0.3c-4.3,0-7.3,2.8-7.3,8.5V124.1z"/>
	<path class="st1" d="M369.1,120.6c2.4,0,4.1-0.9,5.8-2.6l2.9,2.6c-2,2.4-4.8,4-8.8,4c-6.2,0-11-4.5-11-11.2
		c0-6.2,4.4-11.2,10.5-11.2c6.8,0,10.3,5.4,10.3,11.6c0,0.4,0,0.9-0.1,1.3h-15.8C363.5,118.6,365.9,120.6,369.1,120.6z M373.9,111.9
		c-0.3-3.2-2.2-5.7-5.5-5.7c-3,0-5.1,2.3-5.6,5.7H373.9z"/>
	<path class="st1" d="M388.7,117.4c0,1.9,1,2.7,2.6,2.7c1.1,0,2.1-0.2,3.1-0.7v4c-1.2,0.7-2.6,1.1-4.4,1.1c-3.6,0-6.2-1.6-6.2-6.3
		v-11.3h-2.7v-4.2h2.7v-5.9h4.9v5.9h5.8v4.2h-5.8V117.4z"/>
	<path class="st1" d="M404.5,117.4c0,1.9,1,2.7,2.6,2.7c1.1,0,2.1-0.2,3.1-0.7v4c-1.2,0.7-2.6,1.1-4.4,1.1c-3.6,0-6.2-1.6-6.2-6.3
		v-11.3h-2.7v-4.2h2.7v-5.9h4.9v5.9h5.8v4.2h-5.8V117.4z"/>
	<path class="st1" d="M423.6,120.6c2.4,0,4.1-0.9,5.8-2.6l2.9,2.6c-2,2.4-4.8,4-8.8,4c-6.2,0-11-4.5-11-11.2
		c0-6.2,4.4-11.2,10.5-11.2c6.8,0,10.3,5.4,10.3,11.6c0,0.4,0,0.9-0.1,1.3h-15.8C417.9,118.6,420.4,120.6,423.6,120.6z M428.4,111.9
		c-0.3-3.2-2.2-5.7-5.5-5.7c-3,0-5.1,2.3-5.6,5.7H428.4z"/>
	<path class="st1" d="M462.6,124.6c-8.9,0-14.8-6.4-14.8-14.7c0-8,6.1-14.8,14.7-14.8c5,0,8,1.4,11,3.9l-3.2,3.8
		c-2.2-1.9-4.4-3.1-8-3.1c-5.3,0-9.2,4.6-9.2,10.1c0,5.9,3.9,10.2,9.7,10.2c2.7,0,5.1-0.9,6.9-2.2v-5.3h-7.3v-4.4h12.1v12
		C471.7,122.6,467.6,124.6,462.6,124.6z"/>
	<path class="st1" d="M493.6,102.6h4.9v21.5h-4.9v-3.3c-1.4,2-3.4,3.8-6.7,3.8c-4.8,0-7.7-3.3-7.7-8.3v-13.7h4.9v12.2
		c0,3.3,1.7,5.3,4.6,5.3c2.9,0,4.8-2,4.8-5.3V102.6z"/>
	<path class="st1" d="M528.9,102.2c4.7,0,7.5,3,7.5,8.2v13.7h-4.9v-12.2c0-3.4-1.6-5.3-4.4-5.3c-2.7,0-4.6,1.9-4.6,5.3v12.1h-4.9
		v-12.3c0-3.3-1.6-5.2-4.4-5.2s-4.6,2-4.6,5.4v12.1h-4.9v-21.5h4.9v3.3c1.4-1.9,3.3-3.7,6.6-3.7c3.1,0,5.3,1.5,6.4,3.8
		C523.3,103.7,525.6,102.2,528.9,102.2z"/>
</g>
<g class="st2">
	<path class="st1" d="M275.3,141.1h4.9v28.5H276l-15.7-20.3v20.3h-4.9v-28.5h4.6l15.3,19.7V141.1z"/>
	<path class="st1" d="M286,144.8v-4.7h5.3v4.7H286z M286.2,169.6v-21.5h4.9v21.5H286.2z"/>
	<path class="st1" d="M306.6,170.1c-6.4,0-11.1-5-11.1-11.2c0-6.1,4.7-11.3,11.2-11.3c4.1,0,6.6,1.5,8.6,3.7l-3.1,3.3
		c-1.5-1.6-3.1-2.7-5.6-2.7c-3.6,0-6.2,3.1-6.2,6.9c0,3.9,2.6,7,6.4,7c2.3,0,4-1.1,5.6-2.7l3,2.9
		C313.2,168.4,310.8,170.1,306.6,170.1z"/>
	<path class="st1" d="M328.5,170.1c-6.6,0-11.4-5-11.4-11.2c0-6.2,4.9-11.3,11.5-11.3c6.6,0,11.4,5,11.4,11.2
		C340,165,335.2,170.1,328.5,170.1z M328.5,152c-4,0-6.5,3.1-6.5,6.9c0,3.8,2.7,7,6.6,7c4,0,6.5-3.1,6.5-6.9
		C335.1,155.1,332.4,152,328.5,152z"/>
	<path class="st1" d="M355.3,169.6h-10.6v-28.5h10.6c9,0,15.1,6.2,15.1,14.2C370.4,163.4,364.2,169.6,355.3,169.6z M355.3,145.7
		h-5.6v19.4h5.6c6,0,9.9-4,9.9-9.7C365.2,149.8,361.3,145.7,355.3,145.7z"/>
	<path class="st1" d="M384.9,166.1c2.4,0,4.1-0.9,5.8-2.6l2.9,2.6c-2,2.4-4.8,4-8.8,4c-6.2,0-11-4.5-11-11.2
		c0-6.2,4.4-11.2,10.5-11.2c6.8,0,10.3,5.4,10.3,11.6c0,0.4,0,0.9-0.1,1.3h-15.8C379.3,164.1,381.7,166.1,384.9,166.1z M389.7,157.4
		c-0.3-3.2-2.2-5.7-5.5-5.7c-3,0-5.1,2.3-5.6,5.7H389.7z"/>
	<path class="st1" d="M403.5,169.6h-4.9v-21.5h4.9v4.8c1.3-3.2,3.8-5.4,7.6-5.3v5.2h-0.3c-4.3,0-7.3,2.8-7.3,8.5V169.6z"/>
	<path class="st1" d="M439.6,147.7c4.7,0,7.5,3,7.5,8.2v13.7h-4.9v-12.2c0-3.4-1.6-5.3-4.4-5.3c-2.7,0-4.6,1.9-4.6,5.3v12.1h-4.9
		v-12.3c0-3.3-1.6-5.2-4.4-5.2s-4.6,2-4.6,5.4v12.1h-4.9v-21.5h4.9v3.3c1.4-1.9,3.3-3.7,6.6-3.7c3.1,0,5.3,1.5,6.4,3.8
		C434,149.2,436.3,147.7,439.6,147.7z"/>
	<path class="st1" d="M477.2,170.1c-8.3,0-14.5-6.5-14.5-14.7c0-8.1,6.1-14.8,14.7-14.8c5.3,0,8.4,1.8,11.2,4.4l-3.2,3.7
		c-2.3-2.1-4.7-3.5-8-3.5c-5.5,0-9.4,4.5-9.4,10.1c0,5.6,4,10.2,9.4,10.2c3.5,0,5.7-1.4,8.2-3.7l3.2,3.3
		C485.8,168.2,482.5,170.1,477.2,170.1z"/>
	<path class="st1" d="M521.1,166.9l-3.2,3.6l-3.4-3.1c-2.4,1.7-5.3,2.7-8.7,2.7c-8.8,0-14.9-6.6-14.9-14.7s6.2-14.8,14.9-14.8
		s14.9,6.6,14.9,14.7c0,3.3-1.1,6.3-2.9,8.8L521.1,166.9z M505.9,160l3.2-3.7l4.9,4.5c1-1.5,1.5-3.4,1.5-5.4c0-5.6-4-10.2-9.7-10.2
		s-9.6,4.5-9.6,10.1c0,5.6,4,10.2,9.7,10.2c1.9,0,3.5-0.5,4.9-1.4L505.9,160z"/>
	<path class="st1" d="M547.7,160.5h-5.7v9.2h-5v-28.5h11.2c6.6,0,10.8,3.7,10.8,9.6C559.1,157.1,554,160.5,547.7,160.5z
		 M547.9,145.7h-5.8v10.3h5.8c3.8,0,6.1-2.1,6.1-5.1C554,147.4,551.6,145.7,547.9,145.7z"/>
	<path class="st1" d="M575.5,169.6V167c-1.5,1.8-3.7,3.1-7,3.1c-4.1,0-7.7-2.3-7.7-6.6v-0.1c0-4.6,3.7-6.9,8.7-6.9
		c2.6,0,4.3,0.4,5.9,0.9v-0.5c0-3-1.9-4.6-5.3-4.6c-2.4,0-4.2,0.5-6.1,1.3l-1.3-4c2.4-1.1,4.7-1.8,8.2-1.8c6.4,0,9.4,3.3,9.4,9.1
		v12.7H575.5z M575.6,160.5c-1.3-0.5-3-0.9-4.9-0.9c-3.1,0-4.9,1.3-4.9,3.5v0.1c0,2,1.8,3.2,4.2,3.2c3.3,0,5.7-1.8,5.7-4.5V160.5z"
		/>
	<path class="st1" d="M591,162.9c0,1.9,1,2.7,2.6,2.7c1.1,0,2.1-0.2,3.1-0.7v4c-1.2,0.7-2.6,1.1-4.4,1.1c-3.6,0-6.2-1.6-6.2-6.3
		v-11.3h-2.7v-4.2h2.7v-5.9h4.9v5.9h5.8v4.2H591V162.9z"/>
	<path class="st1" d="M610.1,170.1c-6.4,0-11.1-5-11.1-11.2c0-6.1,4.7-11.3,11.2-11.3c4.1,0,6.6,1.5,8.6,3.7l-3.1,3.3
		c-1.5-1.6-3.1-2.7-5.6-2.7c-3.6,0-6.2,3.1-6.2,6.9c0,3.9,2.6,7,6.4,7c2.3,0,4-1.1,5.6-2.7l3,2.9
		C616.7,168.4,614.3,170.1,610.1,170.1z"/>
	<path class="st1" d="M627.3,169.6h-4.9v-29.7h4.9v11.6c1.4-2,3.4-3.8,6.7-3.8c4.8,0,7.7,3.3,7.7,8.3v13.7h-4.9v-12.2
		c0-3.3-1.7-5.3-4.6-5.3c-2.9,0-4.8,2-4.8,5.3V169.6z"/>
</g>
</svg>
